<svg xmlns="http://www.w3.org/2000/svg" viewBox="0 0 85.423 27.61"><defs><style>.a{fill:#fff;}</style></defs><title>logo</title><path class="a" d="M9.636,19.52A3.927,3.927,0,0,1,6.3,20.9,5.887,5.887,0,0,1,2,18.789a7.07,7.07,0,0,1,.014-9.871A6.01,6.01,0,0,1,6.433,6.792a4.156,4.156,0,0,1,1.712.345,3.736,3.736,0,0,1,1.063.635,3.591,3.591,0,0,1,.455.539,1.684,1.684,0,0,1,.566-1.174,2.445,2.445,0,0,1,1.56-.4,5.431,5.431,0,0,1,1.574.165,1.168,1.168,0,0,1,.7.566,2.229,2.229,0,0,1,.248.7,7.561,7.561,0,0,1,.042.939V20.542a6.5,6.5,0,0,1-2.209,5.122,7.331,7.331,0,0,1-4.97,1.946,8.354,8.354,0,0,1-4-1.022q-1.9-1.022-1.9-1.849A2.619,2.619,0,0,1,2.1,22.833a6.789,6.789,0,0,1,.815-.8,1.078,1.078,0,0,1,.676-.221,1.3,1.3,0,0,1,.8.331,4.606,4.606,0,0,0,2.871,1.022,2.1,2.1,0,0,0,1.712-.829,3.08,3.08,0,0,0,.663-1.988ZM4.721,13.874a2.254,2.254,0,0,0,.7,1.615,2.307,2.307,0,0,0,1.712.718,2.155,2.155,0,0,0,1.67-.732,2.335,2.335,0,0,0,.663-1.6,2.5,2.5,0,0,0-.635-1.629,2.117,2.117,0,0,0-1.712-.759,2.215,2.215,0,0,0-1.739.745A2.419,2.419,0,0,0,4.721,13.874Z"/><path class="a" d="M21.107,4.1a1.168,1.168,0,0,1-.732.566,4.778,4.778,0,0,1-1.394.166,4.778,4.778,0,0,1-1.394-.166,1.157,1.157,0,0,1-.732-.58,2.349,2.349,0,0,1-.248-.732,7.885,7.885,0,0,1-.042-.952,7.927,7.927,0,0,1,.042-.953,2.227,2.227,0,0,1,.234-.7Q17.228,0,19,0q1.74,0,2.1.746a2.2,2.2,0,0,1,.262.731,7.915,7.915,0,0,1,.042.953,7.9,7.9,0,0,1-.042.952A2.212,2.212,0,0,1,21.107,4.1ZM16.565,9.222a7.915,7.915,0,0,1,.042-.953,2.524,2.524,0,0,1,.234-.731Q17.228,6.82,19,6.819a2.922,2.922,0,0,1,1.878.47,1.526,1.526,0,0,1,.5,1.187q.027.276.027.8V18.94a7.915,7.915,0,0,1-.042.953,2.208,2.208,0,0,1-.262.732q-.359.717-2.126.717-1.738,0-2.126-.745a2.545,2.545,0,0,1-.234-.718,7.868,7.868,0,0,1-.042-.966Z"/><path class="a" d="M30.066,21.287a5.867,5.867,0,0,1-4.624-2.112,7.577,7.577,0,0,1-1.836-5.149V9.194a8.107,8.107,0,0,1,.041-.966,2.584,2.584,0,0,1,.235-.718q.387-.745,2.154-.746,1.932,0,2.263,1.049a4.333,4.333,0,0,1,.166,1.409v4.831a2.218,2.218,0,0,0,2.388,2.4,2.416,2.416,0,0,0,1.768-.664,2.327,2.327,0,0,0,.676-1.739V9.167a8.181,8.181,0,0,1,.041-.953,2.206,2.206,0,0,1,.263-.732q.357-.717,2.125-.718,1.74,0,2.126.746a2.57,2.57,0,0,1,.235.731,7.973,7.973,0,0,1,.041.953v9.774a7.644,7.644,0,0,1-.041.925,1.974,1.974,0,0,1-.262.7q-.416.718-2.126.718-1.684,0-2.071-.663a2.2,2.2,0,0,1-.276-1.132,2.768,2.768,0,0,1-.5.552,6.664,6.664,0,0,1-.745.607A3.692,3.692,0,0,1,30.066,21.287Z"/><path class="a" d="M48.426,6.792a5.841,5.841,0,0,1,4.6,2.112,7.577,7.577,0,0,1,1.836,5.149v4.86a8.161,8.161,0,0,1-.041.952,2.28,2.28,0,0,1-.235.7q-.387.745-2.154.746-1.959,0-2.263-1.022A4.477,4.477,0,0,1,50,18.885V14.026a2.218,2.218,0,0,0-2.388-2.4,2.421,2.421,0,0,0-1.768.662,2.327,2.327,0,0,0-.676,1.74v4.887a7.9,7.9,0,0,1-.042.952,1.963,1.963,0,0,1-.261.7q-.36.745-2.126.746-1.74,0-2.126-.746a2.6,2.6,0,0,1-.236-.732,8.15,8.15,0,0,1-.041-.952V9.111a7.87,7.87,0,0,1,.041-.925,2,2,0,0,1,.263-.7q.387-.69,2.126-.69,1.683,0,2.07.635a2.2,2.2,0,0,1,.277,1.132,2.768,2.768,0,0,1,.5-.552,4.937,4.937,0,0,1,.745-.58A3.62,3.62,0,0,1,48.426,6.792Z"/><path class="a" d="M61.347,16.787a2.824,2.824,0,0,1,.47,1.932v.111a8.228,8.228,0,0,1-.042.98,2.178,2.178,0,0,1-.29.759q-.414.8-2.084.8a3.286,3.286,0,0,1-2.209-.525,2.777,2.777,0,0,1-.538-1.988v-.11a8.317,8.317,0,0,1,.041-.966,2.167,2.167,0,0,1,.263-.745q.414-.83,2.084-.829A3.458,3.458,0,0,1,61.347,16.787Z"/><path class="a" d="M68.154,4.1a1.173,1.173,0,0,1-.733.566,4.77,4.77,0,0,1-1.393.166,4.785,4.785,0,0,1-1.4-.166,1.158,1.158,0,0,1-.731-.58,2.354,2.354,0,0,1-.249-.732,7.931,7.931,0,0,1-.041-.952,7.973,7.973,0,0,1,.041-.953,2.258,2.258,0,0,1,.235-.7Q64.274,0,66.042,0q1.738,0,2.1.746a2.2,2.2,0,0,1,.262.731,8.132,8.132,0,0,1,.042.953,8.113,8.113,0,0,1-.042.952A2.212,2.212,0,0,1,68.154,4.1ZM63.612,9.222a7.961,7.961,0,0,1,.041-.953,2.561,2.561,0,0,1,.235-.731q.386-.719,2.154-.719a2.914,2.914,0,0,1,1.876.47,1.52,1.52,0,0,1,.5,1.187c.018.184.028.451.028.8V18.94a8.132,8.132,0,0,1-.042.953,2.208,2.208,0,0,1-.262.732q-.36.717-2.126.717-1.74,0-2.126-.745a2.584,2.584,0,0,1-.235-.718,7.918,7.918,0,0,1-.041-.966Z"/><path class="a" d="M72.557,8.614A7.582,7.582,0,0,1,83.131,8.6a7.131,7.131,0,0,1,2.292,5.452,7.169,7.169,0,0,1-1.187,4.072,7.445,7.445,0,0,1-2.886,2.624,7.832,7.832,0,0,1-3.519.841,7.525,7.525,0,0,1-3.535-.9,7.837,7.837,0,0,1-2.885-2.652,6.947,6.947,0,0,1-1.173-3.961A7.133,7.133,0,0,1,72.557,8.614Zm3.451,7.441a2.933,2.933,0,0,0,1.794.677,3.02,3.02,0,0,0,1.823-.69A2.4,2.4,0,0,0,80.536,14a2.394,2.394,0,0,0-.856-2.016,2.964,2.964,0,0,0-1.849-.662,2.889,2.889,0,0,0-1.851.69,2.456,2.456,0,0,0-.855,2.03A2.377,2.377,0,0,0,76.008,16.055Z"/></svg>